<svg width="24" height="24" viewBox="0 0 24 24" fill="none" xmlns="http://www.w3.org/2000/svg">
<path d="M14.122 9.87999C15.292 11.05 15.292 12.95 14.122 14.12C12.942 15.29 11.042 15.29 9.87197 14.12C8.69197 12.94 8.69197 11.04 9.87197 9.86999C11.042 8.69699 12.942 8.69699 14.112 9.86999M2.99997 12C2.99997 11.34 3.14997 10.689 3.43997 10.08C4.94997 6.97999 8.29997 4.98999 11.994 4.98999C15.684 4.98999 19.024 6.97999 20.544 10.07C20.834 10.67 20.984 11.32 20.984 11.98C20.984 12.63 20.824 13.291 20.534 13.89C19.014 16.98 15.664 18.97 11.974 18.97C8.27397 18.97 4.93397 16.97 3.41997 13.88C3.11997 13.27 2.96997 12.62 2.96997 11.96L2.99997 12Z" stroke="white" stroke-width="1.8" stroke-linecap="round" stroke-linejoin="round"/>
</svg>
