<svg width="24" height="24" viewBox="0 0 24 24" fill="none" xmlns="http://www.w3.org/2000/svg">
<path d="M12 21.9C12.4971 21.9 12.9 21.4971 12.9 21C12.9 20.5029 12.4971 20.1 12 20.1V21.9ZM16.1 5C16.1 5.49706 16.5029 5.9 17 5.9C17.4971 5.9 17.9 5.49706 17.9 5H16.1ZM17.9 4.875C17.9 4.37794 17.4971 3.975 17 3.975C16.5029 3.975 16.1 4.37794 16.1 4.875H17.9ZM16.1 5.125C16.1 5.62206 16.5029 6.025 17 6.025C17.4971 6.025 17.9 5.62206 17.9 5.125H16.1ZM12 20.1H7V21.9H12V20.1ZM7 20.1C6.39249 20.1 5.9 19.6075 5.9 19H4.1C4.1 20.6016 5.39837 21.9 7 21.9V20.1ZM5.9 19V5H4.1V19H5.9ZM5.9 5C5.9 4.39249 6.39249 3.9 7 3.9V2.1C5.39837 2.1 4.1 3.39837 4.1 5H5.9ZM7 3.9H15V2.1H7V3.9ZM15 3.9C15.6075 3.9 16.1 4.39249 16.1 5H17.9C17.9 3.39837 16.6016 2.1 15 2.1V3.9ZM16.1 4.875V5.125H17.9V4.875H16.1ZM16.2 9.4H17.8V7.6H16.2V9.4ZM18.1 9.7V19.8H19.9V9.7H18.1ZM17.8 20.1H16.2V21.9H17.8V20.1ZM15.9 19.8V9.7H14.1V19.8H15.9ZM16.2 20.1C16.0343 20.1 15.9 19.9657 15.9 19.8H14.1C14.1 20.9598 15.0402 21.9 16.2 21.9V20.1ZM18.1 19.8C18.1 19.9657 17.9657 20.1 17.8 20.1V21.9C18.9598 21.9 19.9 20.9598 19.9 19.8H18.1ZM17.8 9.4C17.9657 9.4 18.1 9.53431 18.1 9.7H19.9C19.9 8.5402 18.9598 7.6 17.8 7.6V9.4ZM16.2 7.6C15.0402 7.6 14.1 8.54021 14.1 9.7H15.9C15.9 9.53432 16.0343 9.4 16.2 9.4V7.6ZM18.1 17V19.8H19.9V17H18.1ZM15.9 19.8V17H14.1V19.8H15.9ZM19.9 17C19.9 15.3984 18.6016 14.1 17 14.1V15.9C17.6075 15.9 18.1 16.3925 18.1 17H19.9ZM15.9 17C15.9 16.3925 16.3925 15.9 17 15.9V14.1C15.3984 14.1 14.1 15.3984 14.1 17H15.9Z" fill="white"/>
</svg>
