<svg width="24" height="24" viewBox="0 0 24 24" fill="none" xmlns="http://www.w3.org/2000/svg">
<path d="M9.00005 21.84C9.48005 21.84 10.176 21.624 10.632 21.432C11.256 21.192 11.88 21.048 12.432 21.048C12.936 21.048 13.512 21.192 14.184 21.432C14.808 21.696 15.336 21.84 15.792 21.84C16.416 21.84 16.992 21.552 17.544 21.048C17.88 20.784 18.336 20.208 18.888 19.416C19.296 18.864 19.656 18.216 19.968 17.52L20.304 16.608C18.768 15.96 17.616 14.496 17.616 12.6C17.568 10.968 18.312 9.69603 19.8 8.80803C18.936 7.60803 17.712 6.96003 16.08 6.84003C15.432 6.79203 14.688 6.93603 13.824 7.24803C12.888 7.58403 12.312 7.75203 12.144 7.75203C11.952 7.75203 11.424 7.60803 10.68 7.29603C9.86405 7.03203 9.26405 6.88803 8.78405 6.88803C7.92005 6.91203 7.12805 7.10403 6.38405 7.56003C5.61605 7.99203 5.04005 8.59203 4.58404 9.38403C4.00804 10.32 3.69604 11.472 3.69604 12.792C3.69604 13.92 3.91204 15.12 4.36804 16.368C4.75205 17.496 5.25605 18.48 5.85605 19.344C6.45605 20.184 6.91205 20.736 7.29605 21.048C7.84805 21.576 8.42405 21.84 9.00005 21.84ZM12.024 6.45603C12.024 6.57603 12.024 6.69603 12.048 6.81603C14.136 7.00803 16.152 4.72803 16.152 2.54403V2.16003C15.648 2.18403 15.096 2.32803 14.544 2.61603C13.008 3.38403 12.024 4.92003 12.024 6.45603Z" fill="black"/>
</svg>
