<svg width="24" height="24" viewBox="0 0 24 24" fill="none" xmlns="http://www.w3.org/2000/svg">
<path d="M2.63999 12H4.46399V7.00801H19.152C18.696 7.41601 18.264 7.80001 17.856 8.20801L16.8 9.28801L17.976 10.464L22.32 6.09601L17.976 1.75201L16.8 2.95201L17.856 4.00801C18.24 4.39201 18.672 4.80001 19.104 5.18401H2.63999V12ZM1.67999 17.904L6.02399 22.248L7.19999 21.048L6.14399 19.992C5.75999 19.608 5.32799 19.2 4.89599 18.816H21.36V12H19.536V16.992H4.84799C5.30399 16.584 5.73599 16.2 6.14399 15.792L7.19999 14.712L6.02399 13.536L1.67999 17.904Z" fill="black"/>
</svg>
