<svg width="24" height="24" viewBox="0 0 24 24" fill="none" xmlns="http://www.w3.org/2000/svg">
<path d="M19.728 20.472C21.144 20.472 22.296 19.32 22.296 17.904C22.296 16.488 21.144 15.336 19.728 15.336C19.08 15.336 18.504 15.576 18.048 15.96L15.792 14.64C15.912 14.304 15.96 13.944 15.96 13.584C15.96 11.664 14.424 10.128 12.504 10.128C12.24 10.128 12 10.152 11.76 10.2L10.68 7.94402C11.16 7.48802 11.472 6.81602 11.472 6.09602C11.472 4.68002 10.32 3.52802 8.90399 3.52802C7.48799 3.52802 6.33599 4.68002 6.33599 6.09602C6.33599 7.51202 7.48799 8.66402 8.90399 8.66402C9.02399 8.66402 9.16799 8.66402 9.28799 8.64002L10.344 10.896C9.57599 11.52 9.07199 12.504 9.07199 13.584C9.07199 15.504 10.584 17.016 12.504 17.016C13.488 17.016 14.376 16.608 15 15.96L17.232 17.304C17.184 17.496 17.16 17.688 17.16 17.904C17.16 19.32 18.312 20.472 19.728 20.472ZM1.67999 13.584C1.67999 14.712 2.61599 15.648 3.74399 15.648C4.89599 15.648 5.80799 14.712 5.80799 13.584C5.80799 12.408 4.89599 11.52 3.74399 11.52C2.61599 11.52 1.67999 12.408 1.67999 13.584ZM6.59999 14.232H8.20799V12.912H6.59999V14.232ZM7.89599 6.09602C7.89599 5.54402 8.35199 5.08802 8.90399 5.08802C9.45599 5.08802 9.91199 5.54402 9.91199 6.09602C9.91199 6.64802 9.45599 7.10402 8.90399 7.10402C8.35199 7.10402 7.89599 6.64802 7.89599 6.09602ZM10.752 13.584C10.752 12.6 11.52 11.808 12.504 11.808C13.488 11.808 14.28 12.6 14.28 13.584C14.28 14.568 13.488 15.336 12.504 15.336C11.52 15.336 10.752 14.568 10.752 13.584ZM15.792 10.344L16.56 11.4L18.12 10.248L17.352 9.19202L15.792 10.344ZM18.192 7.87201C18.192 9.02401 19.128 9.96002 20.256 9.96002C21.432 9.96002 22.32 9.02401 22.32 7.87201C22.32 6.72002 21.432 5.80802 20.256 5.80802C19.128 5.80802 18.192 6.72002 18.192 7.87201ZM18.72 17.904C18.72 17.352 19.176 16.896 19.728 16.896C20.28 16.896 20.736 17.352 20.736 17.904C20.736 18.456 20.28 18.912 19.728 18.912C19.176 18.912 18.72 18.456 18.72 17.904Z" fill="black"/>
</svg>
