<svg width="24" height="24" viewBox="0 0 24 24" fill="none" xmlns="http://www.w3.org/2000/svg">
<path d="M5.18405 18.36H18.8161V16.68H17.2321C19.1521 15.216 20.2801 12.96 20.2801 10.44C20.2801 5.87997 16.5601 2.15997 12.0001 2.15997C7.44005 2.15997 3.72005 5.87997 3.72005 10.44C3.72005 12.96 4.84805 15.216 6.76805 16.68H5.18405V18.36ZM1.68005 21.84H22.3201V14.76H20.4001V20.04H3.60005V14.76H1.68005V21.84ZM5.64005 10.44C5.64005 6.93597 8.49605 4.07997 12.0001 4.07997C15.5041 4.07997 18.3601 6.93597 18.3601 10.44C18.3601 13.536 16.1281 16.104 13.2241 16.68H10.7761C7.87205 16.104 5.64005 13.536 5.64005 10.44ZM8.95205 11.496C8.90405 12.912 9.91205 13.992 11.4001 14.208V15.168H12.6001V14.208C14.0401 13.992 15.0721 13.008 15.0721 11.808C15.0721 10.632 14.2561 9.93597 12.8881 9.74397L11.6161 9.57597C10.8961 9.47997 10.6321 9.28797 10.6321 8.73597C10.6321 8.03997 11.0881 7.82397 12.0241 7.82397C13.0801 7.82397 13.3441 8.06397 13.3201 9.02397H14.9041C14.9041 7.77597 13.9201 6.76797 12.6001 6.52797V5.56797H11.4001V6.52797C10.0561 6.74397 9.16805 7.67997 9.16805 8.85597C9.16805 10.008 9.88805 10.68 11.1361 10.824L12.3601 10.968C13.2001 11.064 13.4881 11.28 13.4881 11.904C13.4881 12.672 13.1041 12.912 12.0001 12.912C10.7521 12.912 10.4641 12.624 10.4641 11.496H8.95205Z" fill="black"/>
</svg>
