<svg width="25" height="24" viewBox="0 0 25 24" fill="none" xmlns="http://www.w3.org/2000/svg">
<path d="M3.28015 4.17598V17.904L7.74415 14.496H18.1602V4.17598C18.1602 3.19198 17.3442 2.37598 16.3602 2.37598H5.08015C4.09615 2.37598 3.28015 3.19198 3.28015 4.17598ZM5.20015 14.112V4.22398C5.20015 4.19998 5.22415 4.17598 5.24815 4.17598H16.1922C16.2162 4.17598 16.2402 4.19998 16.2402 4.22398V12.696H7.07215L5.20015 14.112ZM8.39215 9.19198C8.36815 10.248 9.18415 11.088 10.3362 11.256V11.976H11.1762V11.256C12.2802 11.088 13.1202 10.344 13.1202 9.43198C13.1202 8.56798 12.5202 8.01598 11.4402 7.87198L10.4802 7.75198C9.95215 7.67998 9.73615 7.53598 9.73615 7.17598C9.73615 6.71998 10.0482 6.55198 10.7682 6.55198C11.5362 6.55198 11.7522 6.71998 11.7282 7.36798H12.9762C12.9762 6.45598 12.2082 5.66398 11.1762 5.49598V4.77598H10.3362V5.49598C9.28015 5.66398 8.56015 6.38398 8.56015 7.27198C8.56015 8.13598 9.06415 8.63998 10.0482 8.75998L11.0322 8.87998C11.6322 8.95198 11.8242 9.09598 11.8242 9.50398C11.8242 10.008 11.5602 10.176 10.7442 10.176C9.83215 10.176 9.61615 9.98398 9.61615 9.19198H8.39215ZM8.56015 16.416C8.56015 17.4 9.37615 18.216 10.3602 18.216H17.5362L22.0002 21.624V8.37598C22.0002 7.34398 21.1362 6.45598 20.0802 6.45598V8.37598V8.85598V17.832L18.2082 16.416H10.9602H10.4802H8.56015Z" fill="black"/>
</svg>
