<svg width="25" height="24" viewBox="0 0 25 24" fill="none" xmlns="http://www.w3.org/2000/svg">
<path d="M3.28015 4.77601V17.304L7.74415 13.896H18.1602V4.77601C18.1602 3.79201 17.3442 2.97601 16.3602 2.97601H5.08015C4.09615 2.97601 3.28015 3.79201 3.28015 4.77601ZM5.20015 13.512V4.82401C5.20015 4.80001 5.22415 4.77601 5.24815 4.77601H16.1922C16.2162 4.77601 16.2402 4.80001 16.2402 4.82401V12.096H7.07215L5.20015 13.512ZM8.56015 15.816C8.56015 16.8 9.37615 17.616 10.3602 17.616H17.5362L22.0002 21.024V8.73601C22.0002 7.70401 21.1362 6.81601 20.0802 6.81601V8.73601V9.21601V17.232L18.2082 15.816H10.9602H10.4802H8.56015Z" fill="black"/>
</svg>
