<svg width="24" height="24" viewBox="0 0 24 24" fill="none" xmlns="http://www.w3.org/2000/svg">
<path d="M5.39998 21.36H12V19.56H5.56798C5.54398 19.56 5.51998 19.536 5.51998 19.512V4.48801C5.51998 4.46401 5.54398 4.44001 5.56798 4.44001H15.672C15.696 4.44001 15.72 4.46401 15.72 4.48801V6.36001H17.64V4.44001C17.64 3.45601 16.824 2.64001 15.84 2.64001H5.39998C4.41598 2.64001 3.59998 3.45601 3.59998 4.44001V19.56C3.59998 20.544 4.41598 21.36 5.39998 21.36ZM14.04 21.36H20.4V8.40002H14.04V21.36ZM15.84 19.56V10.2H18.6V19.56H15.84Z" fill="black"/>
</svg>
