<svg width="24" height="24" viewBox="0 0 24 24" fill="none" xmlns="http://www.w3.org/2000/svg">
<path d="M12.0698 21.7946L14.3018 19.5626C15.2858 18.2426 14.4938 15.7706 12.0938 13.1306L13.0298 12.1946C15.6698 14.6426 18.0458 15.4826 19.5578 14.3066L21.7898 12.0746C23.0618 10.4186 21.9578 7.7786 19.0778 4.92261C16.2218 2.04261 13.5818 0.938605 11.9258 2.21061L9.69378 4.44261C8.51778 5.95461 9.35778 8.33061 11.8058 10.9706L10.8698 11.9066C8.22978 9.50661 5.75778 8.7146 4.43777 9.6986L2.20577 11.9306C0.957775 13.5626 2.01377 16.2026 4.91778 19.0826C7.79778 21.9866 10.4378 23.0426 12.0698 21.7946ZM3.52577 13.0826L4.24577 12.3626C4.38978 13.6826 5.46978 15.2186 7.12578 16.8746C8.78178 18.5306 10.3178 19.6106 11.6378 19.7546L10.9178 20.4746C10.1738 20.9306 8.20578 19.8986 6.14178 17.8586C4.10178 15.7946 3.06977 13.8266 3.52577 13.0826ZM5.58978 11.0186C6.28578 10.6106 7.94178 11.4026 9.74178 13.0346L8.56578 14.2106C8.46978 14.3066 8.58978 14.6906 8.97378 15.0266C9.30978 15.4106 9.69378 15.5306 9.78978 15.4346L10.9658 14.2586C12.5978 16.0586 13.3898 17.7146 12.9818 18.4106C12.4058 18.9866 10.2218 17.8586 8.20578 15.7946C6.14178 13.7786 5.01378 11.5946 5.58978 11.0186ZM11.0138 5.59461L11.7098 4.89861C11.8778 6.19461 12.9578 7.7546 14.6138 9.3866C16.2458 11.0426 17.8058 12.1226 19.1018 12.2906L18.4058 12.9866C17.6618 13.4426 15.6698 12.4106 13.6298 10.3706C11.5898 8.33061 10.5578 6.3386 11.0138 5.59461ZM13.0778 3.53061C13.8458 3.07461 15.7898 4.10661 17.8538 6.14661C19.8938 8.21061 20.9258 10.1546 20.4698 10.9226C19.8698 11.5226 17.7098 10.3706 15.6698 8.33061C13.6298 6.29061 12.4778 4.13061 13.0778 3.53061ZM15.8858 6.6746C15.7898 6.79461 15.9578 7.2266 16.3658 7.6346C16.7738 8.0426 17.2058 8.21061 17.3258 8.1146L17.9978 7.4906C18.1178 7.39461 17.9018 6.93861 17.4698 6.53061C17.0378 6.12261 16.6058 5.88261 16.5098 6.0026L15.8858 6.6746Z" fill="black"/>
</svg>
