<svg width="24" height="24" viewBox="0 0 24 24" fill="none" xmlns="http://www.w3.org/2000/svg">
<path d="M1.67999 21.36H7.67999V15.36H5.51999V12.84H11.16V15.36H8.99999V21.36H15V15.36H12.84V12.84H18.48V15.36H16.32V21.36H22.32V15.36H20.16V11.16H12.84V8.64002H15V2.64001H8.99999V8.64002H11.16V11.16H3.83999V15.36H1.67999V21.36ZM3.35999 19.752V16.968H5.99999V19.752H3.35999ZM10.68 19.752V16.968H13.32V19.752H10.68ZM10.68 7.03201V4.24801H13.32V7.03201H10.68ZM18 19.752V16.968H20.64V19.752H18Z" fill="black"/>
</svg>
