<svg width="24" height="24" viewBox="0 0 24 24" fill="none" xmlns="http://www.w3.org/2000/svg">
<path d="M10.44 16.704C12.384 16.704 13.776 15.408 13.776 13.632C13.776 11.928 12.528 10.584 10.848 10.584C10.224 10.584 9.69601 10.776 9.33601 11.112H9.04801L9.33601 9.21602H13.248V7.58401H7.84801L7.39201 12.744H9.07201C9.28801 12.336 9.60001 12.192 10.344 12.192H10.464C11.496 12.192 11.856 12.456 11.856 13.272V13.944C11.856 14.784 11.52 15.048 10.488 15.048H10.368C9.28801 15.048 8.97601 14.736 8.92801 13.752H7.03201C7.03201 15.456 8.47201 16.704 10.44 16.704ZM4.20001 21.36H10.44C15.696 21.36 19.8 17.088 19.8 12C19.8 6.76801 15.672 2.64001 10.44 2.64001H4.20001V4.56001H10.44C14.616 4.56001 17.88 7.82402 17.88 12C17.88 16.056 14.616 19.44 10.44 19.44H4.20001V21.36Z" fill="black"/>
</svg>
