<svg width="24" height="24" viewBox="0 0 24 24" fill="none" xmlns="http://www.w3.org/2000/svg">
<path d="M12 16.704C13.944 16.704 15.336 15.408 15.336 13.632C15.336 11.928 14.088 10.584 12.408 10.584C11.784 10.584 11.256 10.776 10.896 11.112H10.608L10.896 9.21602H14.808V7.58401H9.40801L8.95201 12.744H10.632C10.848 12.336 11.16 12.192 11.904 12.192H12.024C13.056 12.192 13.416 12.456 13.416 13.272V13.944C13.416 14.784 13.08 15.048 12.048 15.048H11.928C10.848 15.048 10.536 14.736 10.488 13.752H8.59201C8.59201 15.456 10.032 16.704 12 16.704ZM5.76001 21.36H18.24V19.44H5.76001V21.36ZM5.76001 4.56001H18.24V2.64001H5.76001V4.56001Z" fill="black"/>
</svg>
