<svg width="24" height="24" viewBox="0 0 24 24" fill="none" xmlns="http://www.w3.org/2000/svg">
<path d="M13.464 12.408V13.104H11.232L13.488 9.69602H13.512C13.488 10.488 13.464 11.496 13.464 12.408ZM4.2 12C4.2 17.232 8.328 21.36 13.56 21.36H19.8V19.44H13.56C9.384 19.44 6.12 16.176 6.12 12C6.12 7.94402 9.384 4.56001 13.56 4.56001H19.8V2.64001H13.56C8.304 2.64001 4.2 6.91201 4.2 12ZM9.456 14.664H13.464V16.464H15.264V14.664H16.632V13.104H15.264V7.58401H13.248L9.456 13.296V14.664Z" fill="black"/>
</svg>
