<svg width="24" height="24" viewBox="0 0 24 24" fill="none" xmlns="http://www.w3.org/2000/svg">
<path d="M4.56001 20.952H19.44C20.544 20.952 21.36 20.136 21.36 19.032V9.91198C21.36 8.80798 20.544 7.99198 19.44 7.99198H18.816C19.08 7.48798 19.224 6.91198 19.224 6.35997C19.224 4.55997 17.784 3.04797 15.936 3.04797C15.36 3.04797 14.736 3.21597 14.256 3.50397C13.44 4.00797 12.816 4.84797 12.288 5.87997L12 6.40797L11.712 5.87997C11.184 4.84797 10.56 4.00797 9.74402 3.50397C9.26402 3.21597 8.64002 3.04797 8.06401 3.04797C6.21601 3.04797 4.77601 4.55997 4.77601 6.35997C4.77601 6.91198 4.92001 7.48798 5.18401 7.99198H4.56001C3.45601 7.99198 2.64001 8.80798 2.64001 9.91198V19.032C2.64001 20.136 3.45601 20.952 4.56001 20.952ZM4.56001 19.104V13.752H19.44V19.104C19.44 19.128 19.416 19.152 19.392 19.152H4.60801C4.58401 19.152 4.56001 19.128 4.56001 19.104ZM4.56001 11.832V9.83998C4.56001 9.81598 4.58401 9.79198 4.60801 9.79198H19.392C19.416 9.79198 19.44 9.81598 19.44 9.83998V11.832H4.56001ZM6.00002 17.352H9.60002V15.432H6.00002V17.352ZM6.45601 6.35997C6.45601 5.49597 7.15202 4.72797 8.06401 4.72797C9.12002 4.72797 9.74402 5.71197 10.224 6.64797L10.992 8.11198H9.31202C8.56802 8.11198 7.75202 8.08798 7.20002 7.72798C6.67202 7.43998 6.45601 6.86398 6.45601 6.35997ZM13.008 8.11198L13.776 6.64797C14.256 5.71197 14.88 4.72797 15.936 4.72797C16.848 4.72797 17.544 5.49597 17.544 6.35997C17.544 6.86398 17.328 7.43998 16.8 7.72798C16.248 8.08798 15.432 8.11198 14.688 8.11198H13.008Z" fill="black"/>
</svg>
