<svg width="24" height="24" viewBox="0 0 24 24" fill="none" xmlns="http://www.w3.org/2000/svg">
<path fill-rule="evenodd" clip-rule="evenodd" d="M5.48318 9.61858L0.556824 7.67295L12.0059 3.1875L23.4433 7.66707L18.6887 9.56475L18.6887 15.4116L20.3092 17.4597L18.0393 20.8125L15.7349 17.4603L17.3823 15.409V14.4655L12.0033 16.4773L5.48318 14.0232V9.61858ZM7.05084 10.2377L12.0529 12.2133L17.1211 10.1904V12.8893L12.0046 14.8025L7.05084 12.9383V10.2377ZM15.8341 9.01636L12.0503 10.5267L4.83783 7.67883L12.0013 4.87338L19.1766 7.68209L17.6903 8.2754L12.4298 6.45932L12.0033 7.69385L15.8341 9.01636ZM17.362 17.5211L18.0315 18.4943L18.6906 17.5211L18.0315 16.6876L17.362 17.5211Z" fill="black"/>
</svg>
