<svg width="24" height="24" viewBox="0 0 24 24" fill="none" xmlns="http://www.w3.org/2000/svg">
<path d="M2.62805 15.24L7.83605 10.032H15.7321L19.7641 6.024C19.7161 6.624 19.7161 7.2 19.7161 7.776V9.288H21.3721L21.3481 3.12H15.2041V4.8H16.7161C17.2681 4.8 17.8681 4.8 18.4441 4.752L14.9641 8.232H7.11605L2.62805 12.696V15.24ZM2.62805 20.88H4.66805V17.952H2.62805V20.88ZM6.80405 20.88H8.84405V16.056H6.80405V20.88ZM10.9801 20.88H13.0201V12.96H10.9801V20.88ZM15.1561 20.88H17.1961V15.12H15.1561V20.88ZM19.3081 20.88H21.3481V12H19.3081V20.88Z" fill="black"/>
</svg>
