<svg width="24" height="24" viewBox="0 0 24 24" fill="none" xmlns="http://www.w3.org/2000/svg">
<path d="M13.56 8.23197L11.16 10.608C10.968 10.776 10.776 10.896 10.512 10.896C9.88799 10.896 9.55199 10.416 9.55199 9.95997C9.55199 9.69597 9.67199 9.43197 9.81599 9.28797L12.24 6.91197C12.576 6.59997 13.008 6.40797 13.464 6.40797H15.312C15.768 6.40797 16.2 6.59997 16.536 6.91197L17.928 8.27997C18.264 8.61597 18.696 8.78397 19.152 8.78397H22.32V6.98397H19.392C19.32 6.98397 19.248 6.95997 19.2 6.91197L17.904 5.63997C17.232 4.99197 16.272 4.60797 15.312 4.60797H8.68799C7.72799 4.60797 6.76799 4.99197 6.09599 5.63997L4.79999 6.91197C4.75199 6.95997 4.70399 6.98397 4.60799 6.98397H1.67999V8.78397H4.84799C5.30399 8.78397 5.73599 8.61597 6.07199 8.27997L7.46399 6.91197C7.79999 6.59997 8.23199 6.40797 8.68799 6.40797H10.536L8.73599 8.18397C8.27999 8.63997 8.01599 9.31197 8.01599 9.93597C8.01599 11.328 9.11999 12.456 10.512 12.456C11.16 12.456 11.76 12.216 12.24 11.736L12.528 11.448L16.296 15.216L14.376 17.088C14.064 17.4 13.632 17.592 13.176 17.592H9.35999C8.90399 17.592 8.47199 17.4 8.15999 17.088L5.63999 14.616C5.30399 14.304 4.87199 14.112 4.41599 14.112H1.67999V15.912H4.17599C4.24799 15.912 4.31999 15.936 4.36799 15.984L6.81599 18.36C7.43999 18.984 8.39999 19.392 9.35999 19.392H13.176C14.136 19.392 15.096 18.984 15.72 18.36L18.216 15.912H22.32V14.112H17.4L13.656 10.344L14.664 9.33597L13.56 8.23197Z" fill="black"/>
</svg>
