<svg width="24" height="24" viewBox="0 0 24 24" fill="none" xmlns="http://www.w3.org/2000/svg">
<path d="M2.62805 13.344V15.168C9.49205 14.304 15.3001 10.872 19.7641 5.928C19.7161 6.528 19.7161 7.104 19.7161 7.68V9.288H21.3721L21.3481 3.12H15.2041V4.8H16.7161C17.2441 4.8 17.8201 4.8 18.3961 4.752C14.1961 9.384 8.96405 12.504 2.62805 13.344ZM2.62805 20.88H4.66805V17.952H2.62805V20.88ZM6.80405 20.88H8.84405V16.608H6.80405V20.88ZM10.9801 20.88H13.0201V15.192H10.9801V20.88ZM15.1561 20.88H17.1961V13.824H15.1561V20.88ZM19.3081 20.88H21.3481V12.48H19.3081V20.88Z" fill="black"/>
</svg>
