<svg width="24" height="24" viewBox="0 0 24 24" fill="none" xmlns="http://www.w3.org/2000/svg">
<path d="M8.25601 17.544V21.84H15.744V17.544C15.744 16.656 15.888 16.368 16.872 15.288L17.424 14.664C18.816 13.104 19.512 11.448 19.512 9.52797C19.512 5.18397 15.984 2.15997 12 2.15997C8.01601 2.15997 4.48801 5.18397 4.48801 9.52797C4.48801 11.448 5.18401 13.104 6.57601 14.664L7.12801 15.288C8.11201 16.368 8.25601 16.656 8.25601 17.544ZM6.40801 9.52797C6.40801 6.21597 9.02401 3.95997 12 3.95997C14.976 3.95997 17.592 6.21597 17.592 9.52797C17.592 11.016 17.064 12.264 15.984 13.464L15.432 14.088C14.4 15.264 13.92 16.056 13.848 17.16H12.912V12.48H11.112V17.16H10.152C10.08 16.056 9.60001 15.264 8.56801 14.088L8.01601 13.464C6.93601 12.264 6.40801 11.016 6.40801 9.52797ZM10.176 20.04V18.84H13.824V20.04H10.176Z" fill="black"/>
</svg>
