<svg width="24" height="24" viewBox="0 0 24 24" fill="none" xmlns="http://www.w3.org/2000/svg">
<path d="M7.48799 16.32L12 22.368L16.512 16.32C18.168 14.136 19.536 11.832 19.536 9.28796C19.512 4.55996 15.888 1.63196 12 1.63196C8.11199 1.63196 4.48799 4.55996 4.46399 9.28796C4.46399 11.832 5.83199 14.136 7.48799 16.32ZM6.38399 9.28796C6.40799 5.71196 9.09599 3.55196 12 3.55196C14.904 3.55196 17.592 5.71196 17.616 9.28796C17.616 11.232 16.512 13.128 14.976 15.168L12 19.152L9.02399 15.168C7.48799 13.128 6.38399 11.232 6.38399 9.28796ZM8.39999 9.19196C8.39999 11.184 10.008 12.792 12 12.792C13.992 12.792 15.6 11.184 15.6 9.19196C15.6 7.19996 13.992 5.59196 12 5.59196C10.008 5.59196 8.39999 7.19996 8.39999 9.19196ZM10.08 9.19196C10.08 8.13596 10.944 7.27196 12 7.27196C13.056 7.27196 13.92 8.13596 13.92 9.19196C13.92 10.248 13.056 11.112 12 11.112C10.944 11.112 10.08 10.248 10.08 9.19196Z" fill="black"/>
</svg>
