<svg width="25" height="24" viewBox="0 0 25 24" fill="none" xmlns="http://www.w3.org/2000/svg">
<path d="M7.48002 13.776V21.84L12.64 18.96L17.8 21.84V13.776C18.928 12.552 19.6 10.92 19.6 9.11997C19.6 5.27997 16.48 2.15997 12.64 2.15997C8.80002 2.15997 5.68002 5.27997 5.68002 9.11997C5.68002 10.92 6.35202 12.552 7.48002 13.776ZM7.60002 9.11997C7.60002 6.33597 9.85602 4.07997 12.64 4.07997C15.424 4.07997 17.68 6.33597 17.68 9.11997C17.68 11.904 15.424 14.16 12.64 14.16C9.85602 14.16 7.60002 11.904 7.60002 9.11997ZM9.28002 18.888V15.216C10.288 15.768 11.416 16.08 12.64 16.08C13.864 16.08 14.992 15.768 16 15.216V18.888L12.64 16.992L9.28002 18.888Z" fill="black"/>
</svg>
