<svg width="25" height="24" viewBox="0 0 25 24" fill="none" xmlns="http://www.w3.org/2000/svg">
<path d="M8.32001 21.36H10V18H11.8V21.36H13.48V18H15.28V21.36H16.96V18H18.64V16.32H22V14.64H18.64V12.84H22V11.16H18.64V9.36002H22V7.68002H18.64V6.00002H16.96V2.64001H15.28V6.00002H13.48V2.64001H11.8V6.00002H10V2.64001H8.32001V6.00002H6.64001V7.68002H3.28001V9.36002H6.64001V11.16H3.28001V12.84H6.64001V14.64H3.28001V16.32H6.64001V18H8.32001V21.36ZM8.44001 16.2V7.80001H16.84V16.2H8.44001ZM11.2 13.44H14.08V10.56H11.2V13.44Z" fill="black"/>
</svg>
