<svg width="24" height="24" viewBox="0 0 24 24" fill="none" xmlns="http://www.w3.org/2000/svg">
<path d="M6.72004 22.32H17.28C18.264 22.32 19.08 21.504 19.08 20.52V3.47999C19.08 2.49599 18.264 1.67999 17.28 1.67999H6.72004C5.73604 1.67999 4.92004 2.49599 4.92004 3.47999V20.52C4.92004 21.504 5.73604 22.32 6.72004 22.32ZM6.84004 20.472V3.52799C6.84004 3.50399 6.86404 3.47999 6.88804 3.47999H17.112C17.136 3.47999 17.16 3.50399 17.16 3.52799V20.472C17.16 20.496 17.136 20.52 17.112 20.52H6.88804C6.86404 20.52 6.84004 20.496 6.84004 20.472ZM10.728 17.928C10.728 18.6 11.28 19.2 12 19.2C12.696 19.2 13.248 18.6 13.248 17.928C13.248 17.232 12.696 16.68 12 16.68C11.28 16.68 10.728 17.232 10.728 17.928Z" fill="black"/>
</svg>
