<svg width="24" height="24" viewBox="0 0 24 24" fill="none" xmlns="http://www.w3.org/2000/svg">
<path d="M14.928 19.656L5.18401 9.88797L8.49602 6.59997L18.24 16.344C18.816 16.896 19.032 17.496 19.032 18.096C19.032 19.416 18 20.448 16.68 20.448C16.08 20.448 15.48 20.208 14.928 19.656ZM2.64001 9.88797L13.032 20.304V21.84H20.4V11.832H21.36V9.40797H20.4V6.71997H21.36V4.29597H20.4V2.15997H13.2V8.75997L8.49602 4.05597L2.64001 9.88797ZM15.408 18.096C15.408 18.768 15.96 19.368 16.68 19.368C17.376 19.368 17.928 18.768 17.928 18.096C17.928 17.4 17.376 16.848 16.68 16.848C15.96 16.848 15.408 17.4 15.408 18.096Z" fill="black"/>
</svg>
