<svg width="24" height="24" viewBox="0 0 24 24" fill="none" xmlns="http://www.w3.org/2000/svg">
<path d="M17.4721 22.32L22.3201 17.472L6.50405 1.67999L1.68005 6.52799L17.4721 22.32ZM4.05605 6.52799L6.50405 4.05599L12.5281 10.056C11.9521 10.2 11.4001 10.512 10.9201 10.968C10.4881 11.4 10.2001 11.952 10.0561 12.528L4.05605 6.52799ZM5.66405 6.57599C5.66405 7.05599 6.07205 7.46399 6.55205 7.46399C7.03205 7.46399 7.46405 7.05599 7.46405 6.57599C7.46405 6.07199 7.03205 5.66399 6.55205 5.66399C6.07205 5.66399 5.66405 6.07199 5.66405 6.57599ZM12.0481 14.544C11.4241 13.896 11.4721 12.816 12.1201 12.144C12.8161 11.472 13.8961 11.472 14.5201 12.072L19.9441 17.472L17.4721 19.944L12.0481 14.544ZM12.6001 13.512C12.6001 13.992 13.0081 14.4 13.4881 14.4C13.9681 14.4 14.4001 13.992 14.4001 13.512C14.4001 13.008 13.9681 12.6 13.4881 12.6C13.0081 12.6 12.6001 13.008 12.6001 13.512Z" fill="black"/>
</svg>
