<svg width="24" height="24" viewBox="0 0 24 24" fill="none" xmlns="http://www.w3.org/2000/svg">
<path d="M13.512 21.84H20.88V2.15997H13.68V8.75997L8.976 4.05597L3.12 9.88797L13.512 20.304V21.84ZM5.664 9.88797L8.976 6.59997L18.72 16.344C19.296 16.92 19.512 17.496 19.512 18.096C19.512 19.416 18.48 20.448 17.16 20.448C16.56 20.448 15.96 20.208 15.408 19.656L5.664 9.88797ZM15.048 5.85597C15.048 4.63197 16.032 3.64797 17.304 3.64797C18.504 3.64797 19.488 4.63197 19.488 5.85597C19.488 6.95997 18.504 8.08797 17.304 8.08797C16.056 8.06397 15.048 6.95997 15.048 5.85597ZM15.888 18.096C15.888 18.768 16.44 19.368 17.16 19.368C17.856 19.368 18.408 18.768 18.408 18.096C18.408 17.4 17.856 16.848 17.16 16.848C16.44 16.848 15.888 17.4 15.888 18.096ZM16.032 5.85597C16.032 6.50397 16.56 7.12797 17.304 7.10397C18 7.12797 18.552 6.52797 18.552 5.85597C18.528 5.15997 18 4.60797 17.304 4.58397C16.584 4.58397 16.032 5.15997 16.032 5.85597Z" fill="black"/>
</svg>
