<svg width="24" height="24" viewBox="0 0 24 24" fill="none" xmlns="http://www.w3.org/2000/svg">
<path d="M18.096 21.84L21.84 17.952L15.936 12.648L11.664 16.848C10.824 16.224 10.008 15.528 9.23997 14.76C8.49597 13.992 7.77597 13.176 7.15197 12.336L11.352 8.06403L6.04797 2.16003L2.15997 5.92803C2.87997 9.64803 5.08797 13.272 7.89597 16.104C10.752 18.936 14.328 21.144 18.096 21.84ZM4.27197 6.55203L5.95197 4.94403L8.71197 8.01603L6.07197 10.704C5.27997 9.38403 4.65597 7.99203 4.27197 6.55203ZM13.272 17.952L15.984 15.288L19.056 18.048L17.448 19.728C16.008 19.344 14.616 18.744 13.272 17.952Z" fill="black"/>
</svg>
