<svg width="24" height="24" viewBox="0 0 24 24" fill="none" xmlns="http://www.w3.org/2000/svg">
<path d="M10.0561 22.3201L13.6321 18.8161L12.6001 15.7681L14.0881 14.2801L17.8321 21.4081L20.8561 18.1441L18.8881 9.48005L21.4561 6.91205C22.0081 6.36005 22.3201 5.59205 22.3201 4.77605C22.3201 3.00005 20.9281 1.68005 19.2241 1.68005C18.3841 1.68005 17.6161 2.04005 16.8721 2.78405L14.5201 5.11205L5.80805 3.12005L2.68805 6.24005L9.72005 9.91205L8.23205 11.4001L5.20805 10.4401L1.68005 13.9681L7.12805 16.9441L10.0561 22.3201ZM4.65605 13.5361L5.71205 12.4801L8.73605 13.4401L12.7441 9.45605L5.68805 5.78405L6.38405 5.08805L15.0961 7.08005L18.1441 4.05605C18.5521 3.64805 18.8641 3.48005 19.2241 3.48005C19.9441 3.48005 20.5201 3.98405 20.5201 4.77605C20.5201 5.11205 20.4001 5.42405 20.1841 5.64005L16.9201 8.90405L18.8881 17.6161L18.2401 18.3121L14.5441 11.2801L10.5361 15.2881L11.5681 18.3121L10.4881 19.3681L8.44805 15.6241L4.65605 13.5361Z" fill="black"/>
</svg>
