<svg width="24" height="24" viewBox="0 0 24 24" fill="none" xmlns="http://www.w3.org/2000/svg">
<path d="M5.18405 18.36H18.8161V16.68H17.2321C19.1521 15.216 20.2801 12.96 20.2801 10.44C20.2801 5.87997 16.5601 2.15997 12.0001 2.15997C7.44005 2.15997 3.72005 5.87997 3.72005 10.44C3.72005 12.96 4.84805 15.216 6.76805 16.68H5.18405V18.36ZM1.68005 21.84H22.3201V14.76H20.4001V20.04H3.60005V14.76H1.68005V21.84ZM5.64005 10.44C5.64005 6.93597 8.49605 4.07997 12.0001 4.07997C15.5041 4.07997 18.3601 6.93597 18.3601 10.44C18.3601 13.536 16.1281 16.104 13.2241 16.68H10.7761C7.87205 16.104 5.64005 13.536 5.64005 10.44Z" fill="black"/>
</svg>
