<svg width="25" height="24" viewBox="0 0 25 24" fill="none" xmlns="http://www.w3.org/2000/svg">
<path d="M15.808 16.608L21.4 22.2L22.84 20.76L17.248 15.168C18.352 13.752 19 12 19 10.08C19 5.51999 15.28 1.79999 10.72 1.79999C6.16 1.79999 2.44 5.51999 2.44 10.08C2.44 14.64 6.16 18.36 10.72 18.36C12.64 18.36 14.392 17.712 15.808 16.608ZM4.36 10.08C4.36 6.57599 7.216 3.71999 10.72 3.71999C14.224 3.71999 17.08 6.57599 17.08 10.08C17.08 13.584 14.224 16.44 10.72 16.44C7.216 16.44 4.36 13.584 4.36 10.08Z" fill="black"/>
</svg>
