<svg width="25" height="24" viewBox="0 0 25 24" fill="none" xmlns="http://www.w3.org/2000/svg">
<path d="M15.808 16.608L21.4 22.2L22.84 20.76L17.248 15.168C18.352 13.752 19 12 19 10.08C19 5.51999 15.28 1.79999 10.72 1.79999C6.16 1.79999 2.44 5.51999 2.44 10.08C2.44 14.64 6.16 18.36 10.72 18.36C12.64 18.36 14.392 17.712 15.808 16.608ZM4.36 10.08C4.36 6.57599 7.216 3.71999 10.72 3.71999C14.224 3.71999 17.08 6.57599 17.08 10.08C17.08 13.584 14.224 16.44 10.72 16.44C7.216 16.44 4.36 13.584 4.36 10.08ZM7.672 11.136C7.624 12.552 8.632 13.632 10.12 13.848V14.808H11.32V13.848C12.76 13.632 13.792 12.648 13.792 11.448C13.792 10.272 12.976 9.57599 11.608 9.38399L10.336 9.21599C9.616 9.11999 9.352 8.92799 9.352 8.37599C9.352 7.67999 9.808 7.46399 10.744 7.46399C11.8 7.46399 12.064 7.70399 12.04 8.66399H13.624C13.624 7.41599 12.64 6.40799 11.32 6.16799V5.20799H10.12V6.16799C8.776 6.38399 7.888 7.31999 7.888 8.49599C7.888 9.64799 8.608 10.32 9.856 10.464L11.08 10.608C11.92 10.704 12.208 10.92 12.208 11.544C12.208 12.312 11.824 12.552 10.72 12.552C9.472 12.552 9.184 12.264 9.184 11.136H7.672Z" fill="black"/>
</svg>
