<svg width="25" height="24" viewBox="0 0 25 24" fill="none" xmlns="http://www.w3.org/2000/svg">
<path d="M15.352 22.2L15.616 19.056C16.264 18.792 16.84 18.456 17.368 18.072L20.248 19.416L22.864 14.856L20.32 13.128C20.368 12.744 20.392 12.384 20.392 12C20.392 11.616 20.368 11.256 20.32 10.872L22.864 9.14399L20.248 4.60799L17.416 5.92799C16.864 5.51999 16.264 5.18399 15.616 4.94399L15.352 1.79999H9.92802L9.66402 4.94399C9.01602 5.20799 8.44002 5.51999 7.88802 5.92799L5.05602 4.60799L2.41602 9.11999L5.00802 10.896C4.96002 11.256 4.93602 11.616 4.93602 12C4.93602 12.384 4.96002 12.744 5.00802 13.104L2.41602 14.88L5.05602 19.392L7.88802 18.072C8.44002 18.48 9.01602 18.792 9.66402 19.056L9.92802 22.2H15.352ZM4.91202 15.408L7.16802 13.848C6.92802 13.2 6.85602 12.696 6.85602 12C6.85602 11.304 6.92802 10.8 7.16802 10.152L4.91202 8.59199L5.84802 6.98399L8.24802 8.11199C9.18402 7.12799 10.144 6.55199 11.488 6.28799L11.704 3.59999H13.576L13.792 6.28799C15.184 6.57599 16.12 7.10399 17.056 8.08799L19.432 6.98399L20.368 8.61599L18.184 10.104C18.4 10.824 18.472 11.328 18.472 12C18.472 12.672 18.4 13.176 18.184 13.896L20.368 15.384L19.432 17.016L17.032 15.888C16.12 16.848 15.16 17.4 13.792 17.736L13.576 20.4H11.704L11.488 17.712C10.144 17.448 9.18402 16.872 8.24802 15.888L5.84802 17.016L4.91202 15.408ZM9.04002 12C9.04002 13.992 10.648 15.6 12.64 15.6C14.632 15.6 16.24 13.992 16.24 12C16.24 10.008 14.632 8.39999 12.64 8.39999C10.648 8.39999 9.04002 10.008 9.04002 12ZM10.72 12C10.72 10.944 11.584 10.08 12.64 10.08C13.696 10.08 14.56 10.944 14.56 12C14.56 13.056 13.696 13.92 12.64 13.92C11.584 13.92 10.72 13.056 10.72 12Z" fill="black"/>
</svg>
