<svg width="25" height="24" viewBox="0 0 25 24" fill="none" xmlns="http://www.w3.org/2000/svg">
<path d="M12.64 21.84C18.88 19.368 22 15.432 22 10.128V5.08797C19.336 3.16797 16.096 2.15997 12.64 2.15997C9.18401 2.15997 5.94401 3.16797 3.28001 5.08797V10.128C3.28001 15.432 6.40001 19.368 12.64 21.84ZM5.20001 10.128V5.99997C7.43201 4.60797 9.83201 3.95997 12.64 3.95997C15.448 3.95997 17.848 4.60797 20.08 5.99997V10.128C20.08 14.64 17.848 17.64 12.64 19.872C7.43201 17.64 5.20001 14.64 5.20001 10.128ZM8.56001 11.304L11.92 14.688L17.584 8.99997L16.24 7.65597L11.92 11.952L9.90401 9.95997L8.56001 11.304Z" fill="black"/>
</svg>
