<svg width="25" height="24" viewBox="0 0 25 24" fill="none" xmlns="http://www.w3.org/2000/svg">
<path d="M12.64 21.84C18.88 19.368 22 15.432 22 10.128V5.08797C19.336 3.16797 16.096 2.15997 12.64 2.15997C9.18401 2.15997 5.94401 3.16797 3.28001 5.08797V10.128C3.28001 15.432 6.40001 19.368 12.64 21.84ZM5.20001 10.128V5.99997C7.43201 4.60797 9.83201 3.95997 12.64 3.95997C15.448 3.95997 17.848 4.60797 20.08 5.99997V10.128C20.08 14.64 17.848 17.64 12.64 19.872C7.43201 17.64 5.20001 14.64 5.20001 10.128ZM7.96001 11.064C7.96001 11.184 7.98401 11.28 8.05601 11.376L10.168 14.808C10.696 15.72 11.656 16.296 12.76 16.296C14.392 16.296 15.688 15.048 15.784 13.416L15.904 7.82397C15.904 7.53597 15.688 7.29597 15.4 7.29597C15.112 7.29597 14.896 7.53597 14.896 7.79997L14.824 10.8H14.296L14.32 6.79197C14.32 6.50397 14.128 6.26397 13.816 6.26397C13.528 6.26397 13.312 6.50397 13.312 6.76797L13.288 10.56H12.76L12.736 6.26397C12.736 5.99997 12.544 5.75997 12.232 5.75997C11.944 5.75997 11.728 5.99997 11.728 6.28797L11.752 10.8H11.2L11.152 7.29597C11.152 7.03197 10.96 6.76797 10.648 6.76797C10.336 6.76797 10.144 7.03197 10.144 7.31997L10.216 12.528L9.11201 10.728C9.01601 10.536 8.80001 10.416 8.58401 10.416C8.22401 10.416 7.96001 10.68 7.96001 11.064Z" fill="black"/>
</svg>
