<svg width="24" height="24" viewBox="0 0 24 24" fill="none" xmlns="http://www.w3.org/2000/svg">
<path d="M3.59998 20.88H20.4V8.88H16.8V8.136C16.8 6.624 16.536 5.616 15.912 4.848C15 3.696 13.488 3.12 12 3.12C10.512 3.12 8.99998 3.696 8.08798 4.848C7.46398 5.64 7.19998 6.648 7.19998 8.136V8.88H3.59998V20.88ZM5.51998 19.08V10.68H7.19998V12.96H9.11998V10.68H14.88V12.96H16.8V10.68H18.48V19.08H5.51998ZM9.11998 8.88V7.152C9.11998 5.616 9.69598 4.992 11.352 4.992H12.648C14.28 4.992 14.88 5.616 14.88 7.152V8.88H9.11998Z" fill="black"/>
</svg>
