<svg width="24" height="24" viewBox="0 0 24 24" fill="none" xmlns="http://www.w3.org/2000/svg">
<path d="M19.116 17.6639V15.8639H9.13201L8.77201 13.9919H19.86L21.852 4.84794H6.97201L6.54001 2.66394H2.14801V4.46394H4.95601L7.54801 17.6639H19.116ZM7.21201 20.0639C7.21201 20.7359 7.76401 21.3359 8.48401 21.3359C9.18001 21.3359 9.73201 20.7359 9.73201 20.0639C9.73201 19.3679 9.18001 18.8159 8.48401 18.8159C7.76401 18.8159 7.21201 19.3679 7.21201 20.0639ZM7.33201 6.64794H19.5L18.276 12.1919H8.41201L7.33201 6.64794ZM16.908 20.0639C16.908 20.7359 17.46 21.3359 18.18 21.3359C18.876 21.3359 19.428 20.7359 19.428 20.0639C19.428 19.3679 18.876 18.8159 18.18 18.8159C17.46 18.8159 16.908 19.3679 16.908 20.0639Z" fill="black"/>
</svg>
