<svg width="24" height="24" viewBox="0 0 24 24" fill="none" xmlns="http://www.w3.org/2000/svg">
<path d="M10.392 16.704C12.36 16.704 13.704 15.384 13.704 13.608C13.704 11.832 12.336 10.536 10.704 10.536C10.008 10.536 9.31201 10.776 8.88001 11.232H8.59201C8.64001 9.69602 9.16801 9.00002 10.416 9.00002C11.28 9.00002 11.832 9.28802 11.928 9.98402H13.68C13.44 8.37602 12.216 7.34402 10.44 7.34402C8.06401 7.34402 6.72001 9.21602 6.74401 12.144C6.76801 15 8.11201 16.704 10.392 16.704ZM4.20001 21.36H10.44C15.696 21.36 19.8 17.088 19.8 12C19.8 6.76801 15.672 2.64001 10.44 2.64001H4.20001V4.56001H10.44C14.616 4.56001 17.88 7.82402 17.88 12C17.88 16.056 14.616 19.44 10.44 19.44H4.20001V21.36ZM8.83201 13.944V13.176C8.83201 12.432 9.24001 12.12 10.224 12.12H10.464C11.448 12.12 11.856 12.432 11.856 13.176V13.944C11.856 14.688 11.448 15 10.464 15H10.224C9.24001 15 8.83201 14.688 8.83201 13.944Z" fill="black"/>
</svg>
