<svg width="24" height="24" viewBox="0 0 24 24" fill="none" xmlns="http://www.w3.org/2000/svg">
<path d="M12 22.08C16.56 22.08 20.28 18.36 20.28 13.8C20.28 11.88 19.632 10.128 18.528 8.71198L19.68 7.55998L18.24 6.11998L17.088 7.27198C15.912 6.35998 14.496 5.75998 12.96 5.56798V3.83998H14.76V1.91998H9.23997V3.83998H11.04V5.56798C6.93597 6.04798 3.71997 9.57598 3.71997 13.8C3.71997 18.36 7.43997 22.08 12 22.08ZM5.63997 13.8C5.63997 10.296 8.49597 7.43998 12 7.43998C15.504 7.43998 18.36 10.296 18.36 13.8C18.36 17.304 15.504 20.16 12 20.16C8.49597 20.16 5.63997 17.304 5.63997 13.8ZM11.04 14.28C11.04 14.808 11.472 15.24 12 15.24C12.528 15.24 12.96 14.808 12.96 14.28V9.11998H11.04V14.28Z" fill="black"/>
</svg>
