<svg width="24" height="24" viewBox="0 0 24 24" fill="none" xmlns="http://www.w3.org/2000/svg">
<path d="M10.4641 21.36H13.5361C14.2801 21.36 14.8561 20.856 14.9761 20.16C16.9681 19.224 18.3841 17.472 18.8401 15.36H19.2241C20.9761 15.36 22.3201 14.016 22.3201 12.264V11.256C22.3201 9.50402 20.9761 8.16002 19.2241 8.16002H18.8401C18.1921 5.04001 15.4081 2.64001 12.0001 2.64001C8.59205 2.64001 5.80805 5.04001 5.16005 8.16002H4.77605C3.02405 8.16002 1.68005 9.50402 1.68005 11.256V12.264C1.68005 14.016 3.02405 15.36 4.77605 15.36H6.93605V9.55202C6.93605 6.74402 9.19205 4.44001 12.0001 4.44001C14.8081 4.44001 17.0641 6.74402 17.0641 9.55202V13.92C17.0641 15.624 16.2241 17.136 14.9521 18.072C14.7601 17.448 14.2321 17.04 13.5361 17.04H10.4641C9.62405 17.04 9.00005 17.664 9.00005 18.504V19.896C9.00005 20.736 9.62405 21.36 10.4641 21.36ZM3.36005 12.264V11.256C3.36005 10.2 3.72005 9.84002 4.77605 9.84002H5.01605V13.68H4.77605C3.72005 13.68 3.36005 13.32 3.36005 12.264ZM10.5601 19.752V18.648C10.5601 18.624 10.5841 18.6 10.6081 18.6H13.3921C13.4161 18.6 13.4401 18.624 13.4401 18.648V19.752C13.4401 19.776 13.4161 19.8 13.3921 19.8H10.6081C10.5841 19.8 10.5601 19.776 10.5601 19.752ZM18.9841 13.68V9.84002H19.2241C20.2801 9.84002 20.6401 10.2 20.6401 11.256V12.264C20.6401 13.32 20.2801 13.68 19.2241 13.68H18.9841Z" fill="black"/>
</svg>
