<svg width="24" height="24" viewBox="0 0 24 24" fill="none" xmlns="http://www.w3.org/2000/svg">
<path d="M4.00805 20.412H19.9921C21.4321 18.66 22.3201 16.38 22.3201 13.932C22.3201 9.18001 19.0561 5.12401 14.6401 3.94801V5.96401C18.0001 7.06801 20.4001 10.236 20.4001 13.932C20.4001 15.612 19.8961 17.172 19.0321 18.492H4.96805C4.10405 17.172 3.60005 15.612 3.60005 13.932C3.60005 10.236 6.00005 7.06801 9.36005 5.96401V3.94801C4.94405 5.12401 1.68005 9.18001 1.68005 13.932C1.68005 16.38 2.56805 18.66 4.00805 20.412ZM11.0401 13.932C11.0401 14.46 11.4721 14.892 12.0001 14.892C12.5281 14.892 12.9601 14.46 12.9601 13.932V3.58801H11.0401V13.932Z" fill="black"/>
</svg>
