<svg width="24" height="24" viewBox="0 0 24 24" fill="none" xmlns="http://www.w3.org/2000/svg">
<path d="M4.00805 20.4H19.9681C20.8081 19.512 21.6001 17.976 21.9841 16.56H19.9681C19.7281 17.232 19.4161 17.904 19.0321 18.48H4.96805C4.10405 17.16 3.60005 15.6 3.60005 13.92C3.60005 9.28798 7.36805 5.51998 12.0001 5.51998C15.7201 5.51998 18.8641 7.91998 19.9681 11.28H21.9841C20.8081 6.86398 16.8001 3.59998 12.0001 3.59998C6.31205 3.59998 1.68005 8.23198 1.68005 13.92C1.68005 16.368 2.56805 18.648 4.00805 20.4ZM11.0401 13.92C11.0401 14.448 11.4721 14.88 12.0001 14.88H22.3201V12.96H12.0001C11.4721 12.96 11.0401 13.392 11.0401 13.92Z" fill="black"/>
</svg>
