<svg width="24" height="24" viewBox="0 0 24 24" fill="none" xmlns="http://www.w3.org/2000/svg">
<path d="M4.00805 20.4H19.9921C21.4321 18.648 22.3201 16.368 22.3201 13.92C22.3201 8.23198 17.6881 3.59998 12.0001 3.59998C10.1041 3.59998 8.32805 4.10398 6.81605 4.99198L8.23205 6.40798C9.36005 5.83198 10.6561 5.51998 12.0001 5.51998C16.6321 5.51998 20.4001 9.28798 20.4001 13.92C20.4001 15.6 19.8961 17.16 19.0321 18.48H4.96805C4.10405 17.16 3.60005 15.6 3.60005 13.92C3.60005 12.576 3.91205 11.28 4.48805 10.152L3.07205 8.73598C2.18405 10.248 1.68005 12.024 1.68005 13.92C1.68005 16.368 2.56805 18.648 4.00805 20.4ZM4.00805 7.27198L11.3281 14.592C11.4961 14.784 11.7361 14.88 12.0001 14.88C12.5281 14.88 12.9601 14.448 12.9601 13.92C12.9601 13.656 12.8641 13.416 12.6721 13.248L5.35205 5.92798L4.00805 7.27198Z" fill="black"/>
</svg>
