<svg width="24" height="24" viewBox="0 0 24 24" fill="none" xmlns="http://www.w3.org/2000/svg">
<path d="M4.00805 20.4H19.9921C21.4321 18.648 22.3201 16.368 22.3201 13.92C22.3201 12.024 21.8161 10.248 20.9281 8.73598L19.5121 10.152C20.0881 11.28 20.4001 12.576 20.4001 13.92C20.4001 15.6 19.8961 17.16 19.0321 18.48H4.96805C4.10405 17.16 3.60005 15.6 3.60005 13.92C3.60005 9.28798 7.36805 5.51998 12.0001 5.51998C13.3441 5.51998 14.6401 5.83198 15.7681 6.40798L17.1841 4.99198C15.6721 4.10398 13.8961 3.59998 12.0001 3.59998C6.31205 3.59998 1.68005 8.23198 1.68005 13.92C1.68005 16.368 2.56805 18.648 4.00805 20.4ZM11.0401 13.92C11.0401 14.448 11.4721 14.88 12.0001 14.88C12.2641 14.88 12.5041 14.784 12.6721 14.592L19.9921 7.27198L18.6481 5.92798L11.3281 13.248C11.1361 13.416 11.0401 13.656 11.0401 13.92Z" fill="black"/>
</svg>
