<svg width="24" height="24" viewBox="0 0 24 24" fill="none" xmlns="http://www.w3.org/2000/svg">
<path d="M10.44 16.68C12.456 16.68 13.968 15.504 13.968 13.968C13.968 13.008 13.344 12.24 12.528 12V11.664C13.176 11.4 13.656 10.728 13.656 9.91202C13.656 8.47202 12.216 7.32001 10.44 7.32001C8.54401 7.32001 7.08001 8.56802 7.08001 10.128V10.296H8.97601C8.97601 9.24002 9.21601 9.00002 10.416 9.00002C11.544 9.00002 11.784 9.21602 11.784 10.104C11.784 11.016 11.592 11.112 10.632 11.112H9.60001V12.792H10.656C11.736 12.792 12 12.984 12 13.896C12 14.808 11.712 15 10.416 15C9.12001 15 8.88001 14.784 8.88001 13.56H6.93601V13.68C6.93601 15.408 8.40001 16.68 10.44 16.68ZM4.20001 21.36H10.44C15.696 21.36 19.8 17.088 19.8 12C19.8 6.76801 15.672 2.64001 10.44 2.64001H4.20001V4.56001H10.44C14.616 4.56001 17.88 7.82402 17.88 12C17.88 16.056 14.616 19.44 10.44 19.44H4.20001V21.36Z" fill="black"/>
</svg>
