<svg width="25" height="24" viewBox="0 0 25 24" fill="none" xmlns="http://www.w3.org/2000/svg">
<path d="M5.56001 21.96C6.32801 21.96 7.04801 21.672 7.60001 21.12L16.576 12.12C16.96 12.192 17.32 12.24 17.68 12.24C20.584 12.24 22.96 9.86399 22.96 6.95999C22.96 4.05599 20.584 1.67999 17.68 1.67999C14.776 1.67999 12.4 4.05599 12.4 6.95999C12.4 7.31999 12.448 7.67999 12.52 8.06399L3.52001 17.04C2.96801 17.592 2.68001 18.312 2.68001 19.08C2.68001 20.664 3.97601 21.96 5.56001 21.96ZM2.32001 5.99999L7.16801 10.848L9.32801 8.68799L8.58401 7.94399L7.60001 8.90399L6.54401 7.84799L7.50401 6.86399L6.73601 6.09599L5.75201 7.05599L4.69601 5.99999L6.64001 4.05599L10.312 7.72799L10.624 7.41599C10.576 6.55199 10.624 6.14399 10.696 5.73599L6.64001 1.67999L2.32001 5.99999ZM4.48001 19.08C4.48001 18.792 4.57601 18.528 4.79201 18.312L14.584 8.54399C14.344 8.06399 14.2 7.53599 14.2 6.95999C14.2 5.03999 15.76 3.47999 17.68 3.47999C18.28 3.47999 18.856 3.64799 19.36 3.91199L16.84 6.45599L18.184 7.79999L20.728 5.27999C20.992 5.78399 21.16 6.35999 21.16 6.95999C21.16 8.87999 19.6 10.44 17.68 10.44C17.104 10.44 16.576 10.296 16.096 10.056L6.32801 19.848C6.11201 20.064 5.84801 20.16 5.56001 20.16C4.96001 20.16 4.48001 19.68 4.48001 19.08ZM13.792 17.472L18.64 22.32L22.96 18L18.904 13.944C18.496 14.016 18.088 14.064 17.224 14.016L16.912 14.328L20.584 18L18.64 19.944L17.584 18.888L18.544 17.904L17.776 17.136L16.792 18.096L15.736 17.04L16.696 16.056L15.952 15.312L13.792 17.472Z" fill="black"/>
</svg>
