<svg width="25" height="24" viewBox="0 0 25 24" fill="none" xmlns="http://www.w3.org/2000/svg">
<path d="M3.28003 20.4H22V11.16L19.24 8.39998H17.464V5.37598C17.464 4.36798 16.696 3.59998 15.712 3.59998H9.56803C8.58403 3.59998 7.81603 4.36798 7.81603 5.37598V8.39998H6.04003L3.28003 11.16V20.4ZM5.15203 18.6V15.648H8.27203V16.776H10.072V15.648H15.232V16.776H17.032V15.648H20.128V18.6H5.15203ZM5.15203 13.848V11.88L6.83203 10.2H18.448L20.128 11.88V13.848H17.032V12.696H15.232V13.848H10.072V12.696H8.27203V13.848H5.15203ZM9.61603 8.39998V5.44798C9.61603 5.42398 9.64003 5.39998 9.66403 5.39998H15.616C15.64 5.39998 15.664 5.42398 15.664 5.44798V8.39998H9.61603Z" fill="black"/>
</svg>
