<svg width="25" height="24" viewBox="0 0 25 24" fill="none" xmlns="http://www.w3.org/2000/svg">
<path d="M12.64 21.348C17.8 21.348 22 17.172 22 12.012C22 6.85198 17.8 2.65198 12.64 2.65198C7.48003 2.65198 3.28003 6.85198 3.28003 12.012C3.28003 17.172 7.48003 21.348 12.64 21.348ZM6.16003 9.65998V8.07598H12.592V9.65998H10.24V16.428H8.53603V9.65998H6.16003ZM13.528 16.428V8.07598H16.576C18.28 8.07598 19.48 9.25198 19.48 10.812C19.48 12.372 18.28 13.5 16.576 13.5H15.256V16.428H13.528ZM15.256 11.94H16.72C17.464 11.94 17.68 11.7 17.68 11.028V10.572C17.68 9.87598 17.464 9.65998 16.72 9.65998H15.256V11.94Z" fill="black"/>
</svg>
