<svg width="25" height="24" viewBox="0 0 25 24" fill="none" xmlns="http://www.w3.org/2000/svg">
<path d="M7.47999 21.36H17.8C18.784 21.36 19.6 20.544 19.6 19.56V9.60002H17.68V19.512C17.68 19.536 17.656 19.56 17.632 19.56H7.64799C7.62399 19.56 7.59999 19.536 7.59999 19.512V9.60002H5.67999V19.56C5.67999 20.544 6.49599 21.36 7.47999 21.36ZM4.23999 7.99201H21.04V6.19201H16.84V4.17601C16.84 3.31201 16.168 2.64001 15.304 2.64001H9.97599C9.11199 2.64001 8.43999 3.31201 8.43999 4.17601V6.19201H4.23999V7.99201ZM9.83199 17.16H11.632V10.92H9.83199V17.16ZM10.12 6.19201V4.36801C10.12 4.34401 10.144 4.32001 10.168 4.32001H15.112C15.136 4.32001 15.16 4.34401 15.16 4.36801V6.19201H10.12ZM13.672 17.16H15.472V10.92H13.672V17.16Z" fill="black"/>
</svg>
