<svg width="24" height="24" viewBox="0 0 24 24" fill="none" xmlns="http://www.w3.org/2000/svg">
<path d="M8.43606 9.888L20.5561 22.008L21.8521 20.712L3.13206 1.992L1.83606 3.288L7.06806 8.52C6.37206 9.528 5.94006 10.728 5.94006 12V20.4H7.86006V12C7.86006 11.184 8.05206 10.488 8.43606 9.888ZM10.2841 6.36L11.8921 7.968H11.9401H18.9961C18.5401 8.376 18.1081 8.76 17.7001 9.168L16.6441 10.248L17.8201 11.424L22.1641 7.056L17.8201 2.712L16.6441 3.912L17.7001 4.968C18.0841 5.352 18.5161 5.76 18.9481 6.144H11.8441C11.2921 6.144 10.7641 6.216 10.2841 6.36Z" fill="black"/>
</svg>
