<svg width="24" height="24" viewBox="0 0 24 24" fill="none" xmlns="http://www.w3.org/2000/svg">
<path d="M20.7119 22.008L22.0079 20.712L3.28794 1.992L1.99194 3.288L9.79194 11.064L7.60794 11.04L5.06394 8.496L3.95994 9.6L5.47194 11.112L2.75994 11.04V12.72L5.47194 12.648L3.95994 14.16L5.06394 15.264L7.60794 12.72L10.2479 12.696L5.30394 17.592L6.40794 18.696L11.3039 13.752L11.2799 16.392L8.73594 18.936L9.83994 20.04L11.3519 18.528L11.2799 21.24H12.9599L12.8879 18.528L14.3999 20.04L15.5039 18.936L12.9599 16.392L12.9359 14.208L20.7119 22.008ZM8.73594 4.824L12.9359 9.024L12.9599 7.368L15.5039 4.824L14.3999 3.72L12.8879 5.232L12.9599 2.52H11.2799L11.3519 5.232L9.83994 3.72L8.73594 4.824ZM13.4159 9.504L14.4959 10.584L18.9359 6.168L17.8319 5.064L13.4159 9.504ZM14.9759 11.064L19.1759 15.264L20.2799 14.16L18.7679 12.648L21.4799 12.72V11.04L18.7679 11.112L20.2799 9.6L19.1759 8.496L16.6319 11.04L14.9759 11.064Z" fill="black"/>
</svg>
