<svg width="24" height="24" viewBox="0 0 24 24" fill="none" xmlns="http://www.w3.org/2000/svg">
<path d="M11.916 22.3201C13.308 22.3201 14.436 21.1921 14.436 19.8001C14.436 18.7441 13.788 17.8561 12.876 17.4721V15.1921L17.22 13.8481C17.988 13.6081 18.468 12.9841 18.468 12.2161V8.76005H19.356V5.40005H15.852V8.76005H16.788V12.1441C16.788 12.2161 16.74 12.2401 16.668 12.2641L12.876 13.4401V6.12005H14.604L11.916 1.68005L9.22798 6.12005H10.956V14.9761L7.57198 13.8481C7.45198 13.8001 7.40398 13.7761 7.40398 13.6561V10.1281C8.05198 9.81605 8.48398 9.14405 8.48398 8.40005C8.48398 7.34405 7.61998 6.48005 6.56398 6.48005C5.50798 6.48005 4.64398 7.34405 4.64398 8.40005C4.64398 9.14405 5.07598 9.81605 5.72398 10.1281V13.8001C5.72398 14.5681 6.20398 15.1681 6.94798 15.4081L10.956 16.7521V17.4721C10.044 17.8561 9.39598 18.7441 9.39598 19.8001C9.39598 21.1921 10.524 22.3201 11.916 22.3201Z" fill="black"/>
</svg>
