<svg width="24" height="24" viewBox="0 0 24 24" fill="none" xmlns="http://www.w3.org/2000/svg">
<path d="M6.88798 12V21.84H8.80798V12.024C10.728 11.568 12.12 9.86403 12.12 7.92003V2.40003H10.32V7.92003C10.32 9.07203 9.74398 9.93603 8.80798 10.272V2.40003H6.88798V10.272C5.97598 9.91203 5.39998 9.04803 5.39998 7.92003V2.40003H3.59998V7.92003C3.59998 9.86403 4.99198 11.568 6.88798 12ZM13.92 16.8H18.48V21.84H20.4V2.16003C16.8 2.16003 13.92 5.04003 13.92 8.64003V16.8ZM15.84 15.12V8.64003C15.84 6.43203 16.848 4.84803 18.48 4.20003V15.12H15.84Z" fill="black"/>
</svg>
