<svg width="22" height="20" viewBox="0 0 22 20" fill="none" xmlns="http://www.w3.org/2000/svg">
<path d="M7.03999 19.0092C8.07199 19.5852 9.36799 19.7292 11 18.9852L19.832 14.9532C20.744 14.5452 21.32 13.6092 21.32 12.6492C21.32 11.2092 20.144 10.1532 18.8 10.1532C18.584 10.1532 18.368 10.1772 18.152 10.2492L18.08 10.1052C17.504 9.02525 16.184 8.59325 15.032 9.12125L13.568 9.79325C13.976 10.1772 14.312 10.6572 14.528 11.1852L15.728 10.6572C16.088 10.4892 16.496 10.6332 16.664 11.0172L16.76 11.2332L13.376 12.7692C13.376 11.7612 12.776 10.8252 11.864 10.3932L7.90399 8.54525C5.23999 7.29725 2.69599 7.82525 0.679993 10.2492V16.9452H2.47999V10.9452C3.84799 9.57725 5.35999 9.36125 7.13599 10.1772L11.096 12.0252C11.384 12.1692 11.576 12.4572 11.576 12.7932C11.576 13.3932 10.928 13.8012 10.4 13.5612L7.32799 12.1452L6.72799 13.4412L10.184 15.0492C10.712 15.2892 11.384 15.2412 12.296 14.8332L18.512 12.0252C18.992 11.8092 19.52 12.1452 19.52 12.6492C19.52 12.9132 19.352 13.2012 19.088 13.3212L10.256 17.3532C9.31999 17.7852 8.59999 17.8092 7.90399 17.4252L5.19199 15.9132L4.30399 17.4972L7.03999 19.0092ZM7.39999 4.10525C7.39999 6.09725 9.00799 7.70525 11 7.70525C12.992 7.70525 14.6 6.09725 14.6 4.10525C14.6 2.11325 12.992 0.505249 11 0.505249C9.00799 0.505249 7.39999 2.11325 7.39999 4.10525ZM9.07999 4.10525C9.07999 3.04925 9.94399 2.18525 11 2.18525C12.056 2.18525 12.92 3.04925 12.92 4.10525C12.92 5.16125 12.056 6.02525 11 6.02525C9.94399 6.02525 9.07999 5.16125 9.07999 4.10525Z" fill="black"/>
</svg>
