<svg width="24" height="24" viewBox="0 0 24 24" fill="none" xmlns="http://www.w3.org/2000/svg">
<path d="M10.8126 12.9882C10.9239 13.0995 11.1837 13.0995 11.3321 12.9882L15.6739 8.64642C15.8224 8.49798 15.8224 8.27533 15.711 8.12689L14.8204 7.23627C14.7091 7.12494 14.4493 7.12494 14.3009 7.23627L11.0724 10.4648L9.6622 9.05463C9.51376 8.90619 9.29111 8.90619 9.14267 9.05463L8.28915 9.90814C8.14072 10.0566 8.14072 10.2792 8.28915 10.4277L10.8126 12.9882ZM22.0938 12.4687L19.1251 12.4687L19.1251 3.8222C19.1251 3.04291 18.5685 2.37494 17.9005 2.37494L6.06259 2.37494C5.39462 2.37494 4.87509 3.04291 4.87509 3.8222L4.87509 12.4687L1.90634 12.4687C0.904389 12.4687 0.125093 13.2851 0.125093 14.2499L0.125093 19.5937C0.125093 20.5956 0.90439 21.3749 1.90634 21.3749L22.0938 21.3749C23.0587 21.3749 23.8751 20.5956 23.8751 19.5937L23.8751 14.2499C23.8751 13.2851 23.0587 12.4687 22.0938 12.4687ZM17.3438 4.15619L17.3438 16.0312L6.65634 16.0312L6.65634 4.15619L17.3438 4.15619ZM22.0938 19.5937L1.90634 19.5937L1.90634 14.2499L4.87509 14.2499L4.87509 16.0312L4.02158 16.0312C3.83603 16.0312 3.68759 16.1796 3.68759 16.3281L3.68759 17.5156C3.68759 17.7011 3.83603 17.8124 4.02158 17.8124L19.9415 17.8124C20.127 17.8124 20.3126 17.7011 20.3126 17.5156L20.3126 16.3281C20.3126 16.1796 20.127 16.0312 19.9415 16.0312L19.1251 16.0312L19.1251 14.2499L22.0938 14.2499L22.0938 19.5937Z" fill="black"/>
</svg>
