<svg width="24" height="24" viewBox="0 0 24 24" fill="none" xmlns="http://www.w3.org/2000/svg">
<path d="M12 19.92H21.36V6.72H6.36001V8.52H19.44V18.12H12V19.92ZM2.64001 17.688H5.83202V20.88H7.63202V17.688H10.8V15.888H7.63202V12.72H5.83202V15.888H2.64001V17.688ZM2.64001 11.52H4.44001V5.04C4.44001 4.92 4.44001 4.92 4.56001 4.92H19.44C19.392 3.864 18.576 3.12 17.52 3.12H4.56001C3.45601 3.12 2.64001 3.936 2.64001 5.04V11.52ZM15.048 13.44C15.048 14.112 15.6 14.712 16.32 14.712C17.016 14.712 17.568 14.112 17.568 13.44C17.568 12.744 17.016 12.192 16.32 12.192C15.6 12.192 15.048 12.744 15.048 13.44Z" fill="black"/>
</svg>
