<svg width="24" height="24" viewBox="0 0 24 24" fill="none" xmlns="http://www.w3.org/2000/svg">
<path d="M19.3441 21.432L20.6161 20.16L7.87205 7.41599L6.33605 5.85599L3.02405 2.56799L1.75205 3.83999L4.60805 6.69599C3.52805 7.31999 2.54405 8.06399 1.68005 8.87999L3.09605 10.344C3.98405 9.47999 4.99205 8.73599 6.07205 8.15999L8.37605 10.464C7.10405 10.92 5.97605 11.592 4.99205 12.456L6.33605 13.992C7.44005 13.032 8.61605 12.384 9.98405 12.072L12.9841 15.072C12.6721 15 12.3361 14.976 12.0001 14.976C10.6081 14.976 9.38405 15.48 8.42405 16.296L12.0001 20.232L14.9041 16.992L19.3441 21.432ZM8.37605 5.18399L10.0801 6.88799C10.7041 6.81599 11.3281 6.76799 12.0001 6.76799C15.6241 6.76799 18.5761 8.11199 20.9041 10.344L22.3201 8.87999C19.7521 6.40799 16.0801 4.72799 12.0001 4.72799C10.7521 4.72799 9.52805 4.89599 8.37605 5.18399ZM13.0561 9.86399L16.0081 12.84C16.5841 13.152 17.1361 13.536 17.6641 13.992L19.0081 12.456C17.4001 11.064 15.3361 10.104 13.0561 9.86399Z" fill="black"/>
</svg>
