<svg width="24" height="24" viewBox="0 0 24 24" fill="none" xmlns="http://www.w3.org/2000/svg">
<path d="M1.68005 8.39999L3.09605 9.86399C5.42405 7.63199 8.37605 6.28799 12.0001 6.28799C15.6241 6.28799 18.5761 7.63199 20.9041 9.86399L22.3201 8.39999C19.7521 5.92799 16.0801 4.24799 12.0001 4.24799C7.92005 4.24799 4.24805 5.92799 1.68005 8.39999ZM4.99205 11.976L6.33605 13.512C7.94405 12.12 9.69605 11.376 12.0001 11.376C14.3041 11.376 16.0561 12.12 17.6641 13.512L19.0081 11.976C17.1601 10.368 14.7121 9.33599 12.0001 9.33599C9.28805 9.33599 6.84005 10.368 4.99205 11.976ZM8.42405 15.816L12.0001 19.752L15.5761 15.816C14.6161 15 13.3921 14.496 12.0001 14.496C10.6081 14.496 9.38405 15 8.42405 15.816Z" fill="black"/>
</svg>
